# xmcd
#
# Track frame offsets:
#	150
#	24802
#	51659
#	81250
#	100823
#	115153
#	129457
#	155267
#	185854
#	205811
#	224258
#	256484
#
# Disc length: 4062 seconds
#
# Revision: 1
# Processed by: cddbd v1.5.2PL0 Copyright (c) Steve Scherf et al.
# Submitted via: audiograbber 1.83.01
#
DISCID=a80fdc0c
DTITLE=Lazer Lloyd - Unplugged
DYEAR=2011
DGENRE=
TTITLE0=Indian Blue
TTITLE1=Watchtower
TTITLE2=Talk
TTITLE3=Let's Go Back
TTITLE4=Swamp Meditation
TTITLE5=Been Trying
TTITLE6=My Girls
TTITLE7=One Day
TTITLE8=Land Of Dreams
TTITLE9=Return
TTITLE10=While My Guitar
TTITLE11=Story - Peace
EXTD=
EXTT0=
EXTT1=
EXTT2=
EXTT3=
EXTT4=
EXTT5=
EXTT6=
EXTT7=
EXTT8=
EXTT9=
EXTT10=
EXTT11=
PLAYORDER=
